<?xml version="1.0" encoding="UTF-8" standalone="no"?>
<!DOCTYPE svg PUBLIC "-//W3C//DTD SVG 1.1//EN" "http://www.w3.org/Graphics/SVG/1.1/DTD/svg11.dtd">
<svg width="100%" height="100%" viewBox="0 0 77 239" version="1.1" xmlns="http://www.w3.org/2000/svg" xmlns:xlink="http://www.w3.org/1999/xlink" xml:space="preserve" xmlns:serif="http://www.serif.com/" style="fill-rule:evenodd;clip-rule:evenodd;stroke-linejoin:round;stroke-miterlimit:2;">
    <g transform="matrix(1,0,0,1,-314.2,-422)">
        <path d="M321.3,661L384,661C387.9,661 391.1,657.8 391.1,653.9L391.1,429.1C391.1,425.2 387.9,422 384,422L321.3,422C317.4,422 314.2,425.2 314.2,429.1L314.2,653.8C314.2,657.8 317.4,661 321.3,661" style="fill:rgb(154,103,55);fill-rule:nonzero;"/>
        <path d="M353.3,645C350.2,645 351.4,503 353.3,503C355.2,503 356.7,645 353.3,645" style="fill:white;fill-rule:nonzero;"/>
        <path d="M349.2,618.5C349.2,618.5 349.8,599.8 347.4,595.7C345,591.5 333.1,586.5 333.1,586.5C333.1,586.5 331.2,603.3 334.7,608.9C338.2,614.4 349.2,618.5 349.2,618.5" style="fill:white;fill-rule:nonzero;"/>
        <path d="M349.2,587.7C349.2,587.7 349.8,569 347.4,564.9C345,560.7 333.1,555.7 333.1,555.7C333.1,555.7 331.2,572.5 334.7,578.1C338.2,583.6 349.2,587.7 349.2,587.7" style="fill:white;fill-rule:nonzero;"/>
        <path d="M349.2,556.9C349.2,556.9 349.8,538.2 347.4,534.1C345,529.9 333.1,524.9 333.1,524.9C333.1,524.9 331.2,541.7 334.7,547.3C338.2,552.8 349.2,556.9 349.2,556.9" style="fill:white;fill-rule:nonzero;"/>
        <path d="M349.2,526.1C349.2,526.1 349.8,507.4 347.4,503.3C345,499.1 333.1,494.1 333.1,494.1C333.1,494.1 331.2,510.9 334.7,516.5C338.2,522 349.2,526.1 349.2,526.1" style="fill:white;fill-rule:nonzero;"/>
        <path d="M357,618.5C357,618.5 356.4,599.8 358.8,595.7C361.2,591.5 373.1,586.5 373.1,586.5C373.1,586.5 375,603.3 371.5,608.9C368,614.4 357,618.5 357,618.5" style="fill:white;fill-rule:nonzero;"/>
        <path d="M357,587.7C357,587.7 356.4,569 358.8,564.9C361.2,560.7 373.1,555.7 373.1,555.7C373.1,555.7 375,572.5 371.5,578.1C368,583.6 357,587.7 357,587.7" style="fill:white;fill-rule:nonzero;"/>
        <path d="M357,556.9C357,556.9 356.4,538.2 358.8,534.1C361.2,529.9 373.1,524.9 373.1,524.9C373.1,524.9 375,541.7 371.5,547.3C368,552.8 357,556.9 357,556.9" style="fill:white;fill-rule:nonzero;"/>
        <path d="M357,526.1C357,526.1 356.4,507.4 358.8,503.3C361.2,499.1 373.1,494.1 373.1,494.1C373.1,494.1 375,510.9 371.5,516.5C368,522 357,526.1 357,526.1" style="fill:white;fill-rule:nonzero;"/>
        <path d="M353.2,499.4C349.1,499.4 342.5,486.1 342.8,482.6C343.2,479.1 349.8,463.4 353.3,463.4C356.8,463.4 363.3,481.1 363.3,484.3C363.3,487.5 356,499.4 353.2,499.4" style="fill:white;fill-rule:nonzero;"/>
        <path d="M334,492C331.6,492 334.2,472 334.2,472C334.2,472 336.6,492 334,492" style="fill:white;fill-rule:nonzero;"/>
        <path d="M342.1,473C339.7,473 342.3,453 342.3,453C342.3,453 344.7,473 342.1,473" style="fill:white;fill-rule:nonzero;"/>
        <path d="M352.9,460.4C350.5,460.4 353.1,440.4 353.1,440.4C353.1,440.4 355.4,460.4 352.9,460.4" style="fill:white;fill-rule:nonzero;"/>
        <path d="M363.2,473.2C360.8,473.2 363.4,453.2 363.4,453.2C363.4,453.2 365.8,473.2 363.2,473.2" style="fill:white;fill-rule:nonzero;"/>
        <path d="M372.1,491.7C369.7,491.7 372.3,471.7 372.3,471.7C372.3,471.7 374.7,491.7 372.1,491.7" style="fill:white;fill-rule:nonzero;"/>
    </g>
</svg>
