<?xml version="1.0" encoding="UTF-8" standalone="no"?>
<!DOCTYPE svg PUBLIC "-//W3C//DTD SVG 1.1//EN" "http://www.w3.org/Graphics/SVG/1.1/DTD/svg11.dtd">
<svg width="100%" height="100%" viewBox="0 0 443 240" version="1.1" xmlns="http://www.w3.org/2000/svg" xmlns:xlink="http://www.w3.org/1999/xlink" xml:space="preserve" xmlns:serif="http://www.serif.com/" style="fill-rule:evenodd;clip-rule:evenodd;stroke-linejoin:round;stroke-miterlimit:2;">
    <g transform="matrix(1,0,0,1,-314.198,-422)">
        <clipPath id="_clip1">
            <rect x="314.198" y="422.133" width="442.92" height="238.869"/>
        </clipPath>
        <g clip-path="url(#_clip1)">
            <rect x="0" y="0" width="1080" height="1080" style="fill:none;"/>
        </g>
        <path d="M321.3,661L384,661C387.9,661 391.1,657.8 391.1,653.9L391.1,429.1C391.1,425.2 387.9,422 384,422L321.3,422C317.4,422 314.2,425.2 314.2,429.1L314.2,653.8C314.2,657.8 317.4,661 321.3,661" style="fill:rgb(154,103,55);fill-rule:nonzero;"/>
        <g>
            <path d="M438.5,563.8C438.6,564.5 438.5,565.1 438.4,565.7C438.4,565.9 438.4,566 438.3,566.2C438.1,567.3 437.7,568.3 437,569.4C435.3,572.1 432.7,573.9 429.1,574.7C427.8,575 426.5,575.2 425.1,575.2C419.8,575.2 415.3,573.1 411.7,569L414.9,566.2C416.6,568.1 418.6,569.5 420.9,570.3C423.2,571.1 425.6,571.2 428,570.6C430.4,570.1 432.1,568.9 433.2,567.2C433.4,566.9 433.5,566.6 433.7,566.2C434.1,565.1 434.2,563.8 433.8,562.5C433.3,560.8 432.2,559.3 430.5,558C429.4,557.2 427.5,556.2 424.7,555C424.4,554.9 423.9,554.6 423.2,554.3C414.8,550.4 411.8,545.8 414,540.4C415.4,537.1 418,535.2 421.9,534.5C424.2,534.1 426.5,534.3 428.8,535C431.1,535.8 433,536.9 434.5,538.5L431.3,541.4C430.4,540.3 429.1,539.6 427.4,539.1C425.8,538.6 424.2,538.5 422.6,538.7C421.6,538.9 420.8,539.2 420,539.6C419,540.2 418.3,541 417.9,542L417.8,542.2L417.7,542.5C417.6,542.7 417.6,543 417.5,543.2C417.4,543.8 417.6,544.4 417.9,545.1C418.8,546.8 421.1,548.6 424.9,550.4L426.4,551.1L428.2,551.9C428.9,552.2 429.4,552.5 430,552.8C431.3,553.5 432.5,554.2 433.4,554.9C435.8,556.7 437.3,558.9 438,561.5C438.3,562.2 438.5,563 438.5,563.8Z" style="fill:rgb(40,30,26);fill-rule:nonzero;"/>
            <path d="M473.5,535.5L473.5,539.8L460,539.8L460,574L455.7,574L455.7,539.8L442.2,539.8L442.2,535.5L473.5,535.5Z" style="fill:rgb(40,30,26);fill-rule:nonzero;"/>
            <path d="M483.7,535.5L483.7,559.4C483.7,562.6 484.9,565.3 487.2,567.5C489.5,569.7 492.3,570.9 495.5,570.9C498.7,570.9 501.5,569.8 503.8,567.5C506.1,565.2 507.2,562.5 507.2,559.4L507.2,535.5L511.5,535.5L511.5,559.4C511.5,563.7 509.9,567.5 506.8,570.5C503.7,573.6 499.9,575.1 495.5,575.1C491.1,575.1 487.3,573.6 484.2,570.5C481.1,567.4 479.5,563.7 479.5,559.4L479.5,535.5L483.7,535.5Z" style="fill:rgb(40,30,26);fill-rule:nonzero;"/>
            <path d="M520,574L520,535.5L532.3,535.5C535.1,535.5 537.5,536.5 539.5,538.4C541.5,540.3 542.5,542.6 542.5,545.3C542.5,547.8 541.6,550 539.8,551.9C542,552.8 543.7,554.2 545,556.1C546.4,558 547,560.1 547,562.4C547,565.6 545.8,568.3 543.3,570.6C540.8,572.9 537.8,574 534.4,574L520,574ZM524.3,539.8L524.3,550.8L532.4,550.8C534,550.8 535.5,550.3 536.6,549.2C537.8,548.1 538.4,546.8 538.4,545.3C538.4,543.8 537.8,542.5 536.6,541.4C535.4,540.3 534,539.8 532.4,539.8L524.3,539.8ZM542.8,562.4C542.8,560.4 542,558.7 540.4,557.2C538.8,555.8 536.8,555.1 534.5,555.1L524.3,555.1L524.3,569.7L534.5,569.7C536.8,569.7 538.8,569 540.4,567.6C542,566.1 542.8,564.4 542.8,562.4Z" style="fill:rgb(40,30,26);fill-rule:nonzero;"/>
            <path d="M593.8,535.5L593.8,539.8L580.3,539.8L580.3,574L576,574L576,539.8L562.5,539.8L562.5,535.5L593.8,535.5Z" style="fill:rgb(40,30,26);fill-rule:nonzero;"/>
            <path d="M631.2,535.5L631.2,574L627,574L627,555L603.5,555L603.5,574L599.2,574L599.2,535.5L603.5,535.5L603.5,550.7L627,550.7L627,535.5L631.2,535.5Z" style="fill:rgb(40,30,26);fill-rule:nonzero;"/>
            <path d="M666.2,535.5L666.2,539.8L645,539.8L645,550.2L662.4,550.2L662.4,554.5L645,554.5L645,569.7L666.7,569.7L666.7,574L640.7,574L640.7,535.5L666.2,535.5Z" style="fill:rgb(40,30,26);fill-rule:nonzero;"/>
        </g>
        <g>
            <path d="M452,641.8C452.1,642.8 452,643.8 451.9,644.7C451.9,644.9 451.8,645.2 451.8,645.4C451.5,647 450.8,648.6 449.9,650.2C447.4,654.3 443.4,657 438,658.2C436,658.7 434,658.9 432,658.9C424,658.9 417.3,655.8 411.8,649.5L416.7,645.3C419.2,648.2 422.3,650.3 425.8,651.4C429.3,652.6 432.9,652.7 436.5,651.9C440.1,651.1 442.8,649.4 444.3,646.8C444.6,646.3 444.8,645.8 445,645.4C445.7,643.7 445.7,641.8 445.2,639.9C444.5,637.3 442.8,635 440.2,633.1C438.6,631.9 435.7,630.4 431.4,628.5C430.9,628.3 430.2,627.9 429.2,627.5C416.6,621.7 412,614.7 415.4,606.6C417.5,601.7 421.4,598.7 427.3,597.8C430.8,597.2 434.3,597.5 437.7,598.6C441.2,599.7 444,601.5 446.2,603.9L441.4,608.2C440,606.6 438,605.4 435.5,604.7C433,603.9 430.6,603.7 428.3,604.2C426.8,604.4 425.5,604.9 424.4,605.6C423,606.5 421.9,607.7 421.3,609.2L421.1,610C421,610.4 420.9,610.7 420.8,611C420.7,611.9 420.9,612.9 421.4,613.8C422.7,616.4 426.2,619.1 432,621.7L434.2,622.7L436.8,623.9C437.8,624.4 438.7,624.8 439.5,625.2C441.5,626.2 443.2,627.3 444.6,628.3C448.2,631 450.5,634.3 451.5,638.2C451.8,639.5 452,640.7 452,641.8Z" style="fill:rgb(40,30,26);fill-rule:nonzero;"/>
            <path d="M504.8,599.2L504.8,605.7L484.5,605.7L484.5,657.2L478.1,657.2L478.1,605.7L457.8,605.7L457.8,599.2L504.8,599.2Z" style="fill:rgb(40,30,26);fill-rule:nonzero;"/>
            <path d="M520.1,599.2L520.1,635.2C520.1,640 521.8,644.1 525.3,647.4C528.7,650.8 532.9,652.5 537.8,652.5C542.7,652.5 546.8,650.8 550.3,647.4C553.7,644 555.5,639.9 555.5,635.2L555.5,599.2L562,599.2L562,635.2C562,641.8 559.6,647.3 554.9,652C550.2,656.7 544.5,659 537.8,659C531.1,659 525.5,656.7 520.7,652C516,647.4 513.6,641.8 513.6,635.2L513.6,599.2L520.1,599.2Z" style="fill:rgb(40,30,26);fill-rule:nonzero;"/>
            <path d="M574.8,657.2L574.8,599.2L593.4,599.2C597.7,599.2 601.3,600.6 604.3,603.5C607.3,606.4 608.8,609.8 608.8,613.9C608.8,617.7 607.4,621 604.7,623.9C608,625.3 610.6,627.4 612.5,630.2C614.5,633.1 615.6,636.2 615.6,639.7C615.6,644.5 613.7,648.6 610,652.1C606.3,655.5 601.8,657.2 596.5,657.2L574.8,657.2ZM581.3,605.6L581.3,622.2L593.5,622.2C596,622.2 598.1,621.4 599.9,619.8C601.7,618.2 602.5,616.2 602.5,613.9C602.5,611.6 601.6,609.7 599.9,608C598.1,606.4 596,605.6 593.5,605.6L581.3,605.6ZM609.2,639.7C609.2,636.7 608,634.1 605.5,631.9C603,629.8 600.1,628.7 596.6,628.7L581.2,628.7L581.2,650.7L596.6,650.7C600.1,650.7 603.1,649.6 605.5,647.5C608,645.3 609.2,642.7 609.2,639.7Z" style="fill:rgb(40,30,26);fill-rule:nonzero;"/>
            <path d="M623.8,657.2L623.8,599.2L642.4,599.2C646.7,599.2 650.3,600.6 653.3,603.5C656.3,606.4 657.8,609.8 657.8,613.9C657.8,617.7 656.4,621 653.7,623.9C657,625.3 659.6,627.4 661.5,630.2C663.5,633.1 664.6,636.2 664.6,639.7C664.6,644.5 662.7,648.6 659,652.1C655.3,655.5 650.8,657.2 645.5,657.2L623.8,657.2ZM630.2,605.6L630.2,622.2L642.4,622.2C644.9,622.2 647,621.4 648.8,619.8C650.6,618.2 651.4,616.2 651.4,613.9C651.4,611.6 650.5,609.7 648.8,608C647,606.4 644.9,605.6 642.4,605.6L630.2,605.6ZM658.2,639.7C658.2,636.7 657,634.1 654.5,631.9C652,629.8 649.1,628.7 645.6,628.7L630.2,628.7L630.2,650.7L645.6,650.7C649.1,650.7 652.1,649.6 654.5,647.5C656.9,645.3 658.2,642.7 658.2,639.7Z" style="fill:rgb(40,30,26);fill-rule:nonzero;"/>
            <path d="M679.1,599.2L679.1,650.8L709.4,650.8L709.4,657.2L672.7,657.2L672.7,599.2L679.1,599.2Z" style="fill:rgb(40,30,26);fill-rule:nonzero;"/>
            <path d="M756,599.2L756,605.7L724,605.7L724,621.4L750.2,621.4L750.2,627.9L724,627.9L724,650.8L756.7,650.8L756.7,657.2L717.5,657.2L717.5,599.2L756,599.2Z" style="fill:rgb(40,30,26);fill-rule:nonzero;"/>
        </g>
        <path d="M353.3,645C350.2,645 351.4,503 353.3,503C355.2,503 356.7,645 353.3,645" style="fill:white;fill-rule:nonzero;"/>
        <path d="M349.2,618.5C349.2,618.5 349.8,599.8 347.4,595.7C345,591.5 333.1,586.5 333.1,586.5C333.1,586.5 331.2,603.3 334.7,608.9C338.2,614.4 349.2,618.5 349.2,618.5" style="fill:white;fill-rule:nonzero;"/>
        <path d="M349.2,587.7C349.2,587.7 349.8,569 347.4,564.9C345,560.7 333.1,555.7 333.1,555.7C333.1,555.7 331.2,572.5 334.7,578.1C338.2,583.6 349.2,587.7 349.2,587.7" style="fill:white;fill-rule:nonzero;"/>
        <path d="M349.2,556.9C349.2,556.9 349.8,538.2 347.4,534.1C345,529.9 333.1,524.9 333.1,524.9C333.1,524.9 331.2,541.7 334.7,547.3C338.2,552.8 349.2,556.9 349.2,556.9" style="fill:white;fill-rule:nonzero;"/>
        <path d="M349.2,526.1C349.2,526.1 349.8,507.4 347.4,503.3C345,499.1 333.1,494.1 333.1,494.1C333.1,494.1 331.2,510.9 334.7,516.5C338.2,522 349.2,526.1 349.2,526.1" style="fill:white;fill-rule:nonzero;"/>
        <path d="M357,618.5C357,618.5 356.4,599.8 358.8,595.7C361.2,591.5 373.1,586.5 373.1,586.5C373.1,586.5 375,603.3 371.5,608.9C368,614.4 357,618.5 357,618.5" style="fill:white;fill-rule:nonzero;"/>
        <path d="M357,587.7C357,587.7 356.4,569 358.8,564.9C361.2,560.7 373.1,555.7 373.1,555.7C373.1,555.7 375,572.5 371.5,578.1C368,583.6 357,587.7 357,587.7" style="fill:white;fill-rule:nonzero;"/>
        <path d="M357,556.9C357,556.9 356.4,538.2 358.8,534.1C361.2,529.9 373.1,524.9 373.1,524.9C373.1,524.9 375,541.7 371.5,547.3C368,552.8 357,556.9 357,556.9" style="fill:white;fill-rule:nonzero;"/>
        <path d="M357,526.1C357,526.1 356.4,507.4 358.8,503.3C361.2,499.1 373.1,494.1 373.1,494.1C373.1,494.1 375,510.9 371.5,516.5C368,522 357,526.1 357,526.1" style="fill:white;fill-rule:nonzero;"/>
        <path d="M353.2,499.4C349.1,499.4 342.5,486.1 342.8,482.6C343.2,479.1 349.8,463.4 353.3,463.4C356.8,463.4 363.3,481.1 363.3,484.3C363.3,487.5 356,499.4 353.2,499.4" style="fill:white;fill-rule:nonzero;"/>
        <path d="M334,492C331.6,492 334.2,472 334.2,472C334.2,472 336.6,492 334,492" style="fill:white;fill-rule:nonzero;"/>
        <path d="M342.1,473C339.7,473 342.3,453 342.3,453C342.3,453 344.7,473 342.1,473" style="fill:white;fill-rule:nonzero;"/>
        <path d="M352.9,460.4C350.5,460.4 353.1,440.4 353.1,440.4C353.1,440.4 355.4,460.4 352.9,460.4" style="fill:white;fill-rule:nonzero;"/>
        <path d="M363.2,473.2C360.8,473.2 363.4,453.2 363.4,453.2C363.4,453.2 365.8,473.2 363.2,473.2" style="fill:white;fill-rule:nonzero;"/>
        <path d="M372.1,491.7C369.7,491.7 372.3,471.7 372.3,471.7C372.3,471.7 374.7,491.7 372.1,491.7" style="fill:white;fill-rule:nonzero;"/>
    </g>
</svg>
